<svg xmlns="http://www.w3.org/2000/svg" xmlns:xlink="http://www.w3.org/1999/xlink" width="312" zoomAndPan="magnify" viewBox="0 0 234 230.249992" height="307" preserveAspectRatio="xMidYMid meet" version="1.0"><defs><clipPath id="ea75252e6c"><path d="M 0.378906 0 L 233.621094 0 L 233.621094 229.503906 L 0.378906 229.503906 Z M 0.378906 0 " clip-rule="nonzero"/></clipPath><clipPath id="fa9b0081f9"><path d="M 76.847656 88.113281 L 155.9375 88.113281 L 155.9375 132.601562 L 76.847656 132.601562 Z M 76.847656 88.113281 " clip-rule="nonzero"/></clipPath><clipPath id="8b3428ee3c"><path d="M 0.378906 131.058594 L 232.707031 131.058594 L 232.707031 228.933594 L 0.378906 228.933594 Z M 0.378906 131.058594 " clip-rule="nonzero"/></clipPath><clipPath id="aae190d3fd"><path d="M 53.59375 131.058594 L 118.953125 131.058594 L 118.953125 172.066406 L 53.59375 172.066406 Z M 53.59375 131.058594 " clip-rule="nonzero"/></clipPath><clipPath id="7995efb262"><path d="M 86.203125 131.058594 C 68.195312 131.058594 53.59375 140.238281 53.59375 151.5625 C 53.59375 162.886719 68.195312 172.066406 86.203125 172.066406 C 104.210938 172.066406 118.808594 162.886719 118.808594 151.5625 C 118.808594 140.238281 104.210938 131.058594 86.203125 131.058594 Z M 86.203125 131.058594 " clip-rule="nonzero"/></clipPath><clipPath id="676c4072aa"><path d="M 115.648438 135.195312 L 180 135.195312 L 180 175.617188 L 115.648438 175.617188 Z M 115.648438 135.195312 " clip-rule="nonzero"/></clipPath><clipPath id="d1eb8dda34"><path d="M 147.785156 135.195312 C 130.035156 135.195312 115.648438 144.246094 115.648438 155.40625 C 115.648438 166.570312 130.035156 175.617188 147.785156 175.617188 C 165.535156 175.617188 179.925781 166.570312 179.925781 155.40625 C 179.925781 144.246094 165.535156 135.195312 147.785156 135.195312 Z M 147.785156 135.195312 " clip-rule="nonzero"/></clipPath></defs><g clip-path="url(#ea75252e6c)"><path fill="#f5f5f5" d="M 0.378906 0 L 233.621094 0 L 233.621094 229.503906 L 0.378906 229.503906 Z M 0.378906 0 " fill-opacity="1" fill-rule="nonzero"/></g><path fill="#080a0c" d="M 90.445312 61.265625 C 83.359375 62.480469 77.28125 63.601562 71.179688 64.5625 C 37.757812 69.824219 26.515625 45.859375 30.421875 20.558594 C 31.546875 13.273438 35.007812 9.484375 42.167969 7.425781 C 67.996094 0 86.867188 12.191406 90.308594 39.554688 C 91.203125 46.660156 90.445312 53.972656 90.445312 61.265625 Z M 84.566406 54.917969 C 90.613281 51.152344 88.730469 45.660156 87.910156 40.46875 C 84.753906 20.464844 74 9.378906 56.78125 8.328125 C 43.148438 7.492188 35.3125 11.363281 32.828125 20.714844 C 29.925781 31.640625 31.445312 42.132812 37.710938 51.605469 C 42.449219 58.765625 49.238281 62.730469 58.464844 63.21875 C 48.375 51.617188 46.648438 45.929688 50.082031 35.882812 C 53.183594 40.597656 57.089844 43.34375 62.410156 39.90625 C 64 38.882812 65.816406 36.191406 65.515625 34.65625 C 64.792969 30.988281 62.875 27.550781 61.449219 24.046875 C 77 19.800781 87 32.835938 84.566406 54.917969 Z M 84.566406 54.917969 " fill-opacity="1" fill-rule="nonzero"/><path fill="#f5f5f5" d="M 84.566406 54.917969 C 87 32.835938 77 19.800781 61.449219 24.046875 C 62.875 27.550781 64.792969 30.984375 65.515625 34.65625 C 65.816406 36.1875 64 38.882812 62.410156 39.90625 C 57.089844 43.34375 53.183594 40.597656 50.082031 35.882812 C 46.648438 45.929688 48.375 51.617188 58.460938 63.21875 C 49.238281 62.730469 42.449219 58.765625 37.710938 51.605469 C 31.445312 42.132812 29.925781 31.640625 32.828125 20.714844 C 35.3125 11.363281 43.148438 7.492188 56.78125 8.328125 C 74 9.378906 84.753906 20.464844 87.910156 40.46875 C 88.730469 45.660156 90.613281 51.152344 84.566406 54.917969 Z M 84.566406 54.917969 " fill-opacity="1" fill-rule="nonzero"/><path fill="#080a0c" d="M 142.949219 39.554688 C 146.390625 12.191406 165.261719 0 191.089844 7.425781 C 198.25 9.480469 201.710938 13.273438 202.835938 20.558594 C 206.746094 45.859375 195.503906 69.824219 162.078125 64.5625 C 155.976562 63.601562 149.902344 62.480469 142.816406 61.265625 C 142.816406 53.972656 142.058594 46.660156 142.949219 39.554688 Z M 171.8125 24.046875 C 170.386719 27.550781 168.46875 30.984375 167.746094 34.65625 C 167.445312 36.1875 169.261719 38.882812 170.851562 39.90625 C 176.171875 43.34375 180.078125 40.597656 183.179688 35.882812 C 186.613281 45.929688 184.882812 51.617188 174.796875 63.21875 C 184.019531 62.730469 190.8125 58.765625 195.550781 51.605469 C 201.816406 42.132812 203.332031 31.640625 200.429688 20.714844 C 197.945312 11.363281 190.109375 7.492188 176.480469 8.324219 C 159.257812 9.378906 148.503906 20.464844 145.347656 40.46875 C 144.53125 45.660156 142.644531 51.152344 148.691406 54.917969 C 146.257812 32.835938 156.261719 19.800781 171.8125 24.046875 Z M 171.8125 24.046875 " fill-opacity="1" fill-rule="nonzero"/><path fill="#f5f5f5" d="M 148.691406 54.917969 C 146.257812 32.835938 156.261719 19.800781 171.8125 24.046875 C 170.386719 27.550781 168.46875 30.988281 167.746094 34.65625 C 167.445312 36.191406 169.261719 38.882812 170.851562 39.90625 C 176.171875 43.34375 180.078125 40.597656 183.179688 35.882812 C 186.613281 45.929688 184.882812 51.617188 174.796875 63.21875 C 184.019531 62.730469 190.8125 58.765625 195.550781 51.605469 C 201.816406 42.132812 203.332031 31.640625 200.429688 20.714844 C 197.945312 11.363281 190.109375 7.492188 176.480469 8.328125 C 159.257812 9.378906 148.503906 20.464844 145.347656 40.46875 C 144.53125 45.660156 142.644531 51.152344 148.691406 54.917969 Z M 148.691406 54.917969 " fill-opacity="1" fill-rule="nonzero"/><g clip-path="url(#fa9b0081f9)"><path fill="#080a0c" d="M 156.410156 105.636719 C 156.410156 120.449219 138.601562 132.453125 116.628906 132.453125 C 94.65625 132.453125 76.84375 120.449219 76.84375 105.636719 C 76.84375 90.828125 94.65625 88.113281 116.628906 88.113281 C 138.601562 88.113281 156.410156 90.828125 156.410156 105.636719 " fill-opacity="1" fill-rule="nonzero"/></g><path fill="#f5f5f5" d="M 150.035156 104.730469 C 149.050781 106.75 145.089844 102.378906 138.925781 99.371094 C 132.761719 96.363281 126.730469 95.855469 127.714844 93.839844 C 128.699219 91.824219 136.273438 91.171875 142.4375 94.175781 C 148.601562 97.183594 151.019531 102.714844 150.035156 104.730469 " fill-opacity="1" fill-rule="nonzero"/><path fill="#080a0c" d="M 227.726562 216.214844 C 228.0625 215.535156 228.347656 214.828125 228.609375 214.113281 C 224.5 222.296875 216.0625 227.9375 206.277344 227.972656 C 193.710938 228.007812 183.367188 218.78125 181.496094 206.71875 L 51.703125 205.929688 C 49.695312 217.964844 39.238281 227.074219 26.671875 226.886719 C 24.128906 226.851562 21.691406 226.425781 19.398438 225.691406 C 20 226.03125 20.582031 226.394531 21.210938 226.6875 C 10.945312 224.230469 3.25 215.476562 2.164062 204.824219 C 2.074219 204.046875 2.007812 203.261719 1.992188 202.464844 C 1.988281 202.277344 1.945312 202.097656 1.953125 201.90625 L 1.964844 201.734375 C 1.964844 201.621094 1.949219 201.511719 1.953125 201.40625 C 2.113281 191.898438 7.601562 183.820312 15.464844 179.691406 C 7.742188 175.3125 2.507812 167.082031 2.660156 157.566406 C 2.65625 157.480469 2.667969 157.398438 2.671875 157.3125 C 2.667969 157.230469 2.660156 157.148438 2.660156 157.066406 C 2.886719 143.21875 14.285156 132.148438 28.136719 132.375 C 40.648438 132.574219 50.789062 141.917969 52.492188 153.902344 L 181.34375 154.679688 C 183.195312 142.710938 193.445312 133.5 205.957031 133.449219 C 219.828125 133.394531 231.074219 144.601562 231.136719 158.453125 C 231.132812 158.535156 231.121094 158.613281 231.117188 158.707031 C 231.125 158.789062 231.132812 158.867188 231.132812 158.949219 C 231.140625 162.316406 230.445312 165.484375 229.261719 168.40625 C 229.351562 168.054688 229.390625 167.6875 229.46875 167.335938 C 227.285156 173.082031 223.066406 177.816406 217.65625 180.667969 C 225.691406 184.828125 231.273438 193.117188 231.304688 202.789062 C 231.304688 202.898438 231.292969 203.003906 231.277344 203.109375 C 231.289062 203.164062 231.300781 203.226562 231.300781 203.285156 C 231.296875 203.65625 231.238281 204 231.222656 204.363281 C 231.203125 204.777344 231.1875 205.1875 231.140625 205.59375 C 230.792969 209.445312 229.613281 213.0625 227.726562 216.214844 " fill-opacity="1" fill-rule="evenodd"/><g clip-path="url(#8b3428ee3c)"><path fill="#080a0c" d="M 227.726562 216.214844 L 228.914062 216.800781 C 229.277344 216.0625 229.582031 215.316406 229.851562 214.566406 C 230.097656 213.90625 229.78125 213.175781 229.136719 212.894531 C 228.488281 212.617188 227.742188 212.886719 227.425781 213.515625 C 223.527344 221.273438 215.539062 226.613281 206.269531 226.648438 L 206.277344 226.648438 L 206.210938 226.648438 C 200.269531 226.648438 194.871094 224.46875 190.722656 220.863281 C 186.574219 217.253906 183.691406 212.21875 182.804688 206.515625 C 182.703125 205.871094 182.15625 205.398438 181.503906 205.390625 L 51.710938 204.601562 C 51.0625 204.597656 50.507812 205.066406 50.398438 205.707031 C 49.453125 211.355469 46.550781 216.316406 42.417969 219.875 C 38.277344 223.425781 32.921875 225.5625 27.046875 225.5625 C 26.929688 225.5625 26.808594 225.5625 26.6875 225.5625 C 24.285156 225.527344 21.980469 225.125 19.800781 224.425781 C 19.152344 224.21875 18.457031 224.535156 18.183594 225.15625 C 17.910156 225.78125 18.152344 226.507812 18.742188 226.84375 C 19.316406 227.164062 19.925781 227.550781 20.652344 227.890625 L 21.210938 226.6875 L 21.519531 225.398438 C 11.804688 223.074219 4.511719 214.78125 3.480469 204.6875 L 3.480469 204.667969 C 3.394531 203.925781 3.335938 203.179688 3.320312 202.4375 L 3.320312 202.417969 C 3.3125 202.257812 3.296875 202.136719 3.289062 202.054688 C 3.277344 201.976562 3.277344 201.941406 3.277344 201.941406 L 3.277344 201.929688 L 2.304688 201.929688 L 3.273438 202 L 3.277344 201.929688 L 2.304688 201.929688 L 3.273438 202 L 1.953125 201.90625 L 3.273438 202.015625 L 3.289062 201.84375 L 3.289062 201.734375 C 3.289062 201.621094 3.285156 201.539062 3.28125 201.492188 L 3.277344 201.445312 L 3.277344 201.4375 L 3.042969 201.445312 L 3.277344 201.445312 L 3.277344 201.4375 L 3.042969 201.445312 L 3.277344 201.445312 L 2.503906 201.445312 L 3.273438 201.503906 L 3.277344 201.445312 L 2.503906 201.445312 L 3.273438 201.503906 L 3.277344 201.429688 C 3.355469 196.921875 4.6875 192.773438 6.9375 189.246094 C 9.1875 185.71875 12.351562 182.824219 16.082031 180.863281 C 16.511719 180.640625 16.78125 180.199219 16.789062 179.714844 C 16.796875 179.226562 16.542969 178.777344 16.121094 178.539062 C 12.507812 176.488281 9.472656 173.554688 7.339844 170.03125 C 5.210938 166.503906 3.984375 162.398438 3.984375 157.972656 C 3.984375 157.84375 3.984375 157.71875 3.988281 157.597656 L 3.984375 157.480469 L 3.304688 157.527344 L 3.984375 157.527344 L 3.984375 157.480469 L 3.304688 157.527344 L 3.988281 157.527344 C 3.988281 157.503906 3.992188 157.453125 3.996094 157.375 L 3.996094 157.269531 C 3.996094 157.195312 3.992188 157.144531 3.988281 157.113281 L 3.988281 157.082031 L 3.722656 157.089844 L 3.988281 157.089844 L 3.988281 157.082031 L 3.722656 157.089844 L 3.988281 157.089844 L 3.988281 157.082031 L 2.890625 157.082031 L 3.980469 157.183594 C 3.988281 157.121094 3.988281 157.085938 3.988281 157.082031 L 2.890625 157.082031 L 3.980469 157.183594 L 3.988281 157.085938 C 4.195312 144.105469 14.78125 133.695312 27.714844 133.699219 C 27.847656 133.699219 27.980469 133.699219 28.113281 133.703125 C 34.042969 133.796875 39.398438 136.050781 43.484375 139.707031 C 47.566406 143.363281 50.371094 148.414062 51.179688 154.089844 C 51.269531 154.738281 51.828125 155.226562 52.480469 155.226562 L 181.335938 156.007812 C 181.992188 156.011719 182.550781 155.53125 182.652344 154.886719 C 183.53125 149.214844 186.398438 144.199219 190.523438 140.59375 C 194.652344 136.988281 200.03125 134.800781 205.960938 134.777344 L 206.058594 134.777344 C 219.148438 134.773438 229.753906 145.371094 229.8125 158.457031 L 231.136719 158.453125 L 229.8125 158.414062 L 230.160156 158.421875 L 229.8125 158.398438 L 229.8125 158.414062 L 230.160156 158.421875 L 229.8125 158.398438 L 229.8125 158.410156 C 229.8125 158.433594 229.796875 158.519531 229.792969 158.648438 L 229.796875 158.789062 C 229.796875 158.867188 229.804688 158.917969 229.804688 158.941406 L 229.808594 158.953125 L 230.207031 158.929688 L 229.808594 158.929688 L 229.808594 158.953125 L 230.207031 158.929688 L 229.808594 158.929688 L 230.472656 158.929688 L 229.808594 158.925781 L 229.808594 158.929688 L 230.472656 158.929688 L 229.808594 158.925781 L 229.808594 159.015625 C 229.804688 162.171875 229.152344 165.148438 228.03125 167.90625 L 229.261719 168.40625 L 230.542969 168.738281 C 230.667969 168.257812 230.703125 167.875 230.761719 167.617188 C 230.910156 166.941406 230.515625 166.261719 229.847656 166.0625 C 229.183594 165.863281 228.476562 166.210938 228.230469 166.863281 C 226.160156 172.304688 222.164062 176.796875 217.035156 179.496094 C 216.597656 179.726562 216.328125 180.179688 216.328125 180.671875 C 216.328125 181.167969 216.605469 181.617188 217.042969 181.847656 C 220.855469 183.816406 224.085938 186.769531 226.359375 190.371094 C 228.636719 193.96875 229.960938 198.210938 229.976562 202.792969 L 229.976562 202.789062 L 229.976562 202.804688 C 229.980469 202.804688 229.976562 202.84375 229.964844 202.925781 C 229.949219 203.050781 229.949219 203.15625 229.964844 203.28125 C 229.976562 203.363281 229.984375 203.398438 229.984375 203.398438 L 230.738281 203.28125 L 229.976562 203.28125 C 229.976562 203.359375 229.984375 203.398438 229.984375 203.398438 L 230.738281 203.28125 L 229.976562 203.28125 L 231.191406 203.28125 L 229.976562 203.257812 L 229.976562 203.28125 L 231.191406 203.28125 L 229.976562 203.257812 C 229.976562 203.261719 229.96875 203.332031 229.984375 203.457031 L 231.300781 203.285156 L 229.976562 203.273438 C 229.976562 203.507812 229.921875 203.835938 229.898438 204.308594 C 229.882812 204.726562 229.867188 205.105469 229.824219 205.429688 L 229.820312 205.476562 C 229.488281 209.132812 228.371094 212.554688 226.589844 215.535156 L 227.726562 216.214844 L 228.914062 216.800781 L 227.726562 216.214844 L 228.863281 216.894531 C 230.859375 213.570312 232.09375 209.757812 232.460938 205.714844 L 231.140625 205.59375 L 232.457031 205.757812 C 232.515625 205.273438 232.53125 204.824219 232.546875 204.421875 C 232.554688 204.164062 232.617188 203.800781 232.625 203.300781 L 232.617188 203.117188 L 231.328125 203.285156 L 232.625 203.285156 C 232.625 203.257812 232.625 203.199219 232.617188 203.117188 L 231.328125 203.285156 L 232.625 203.285156 L 231.410156 203.285156 L 232.625 203.304688 L 232.625 203.285156 L 231.410156 203.285156 L 232.625 203.304688 L 232.625 203.28125 C 232.625 203.140625 232.609375 203.042969 232.601562 202.988281 L 232.59375 202.929688 L 232.59375 202.925781 L 232.171875 202.988281 L 232.59375 202.933594 L 232.59375 202.925781 L 232.171875 202.988281 L 232.59375 202.933594 L 231.277344 203.109375 L 232.59375 203.285156 C 232.605469 203.175781 232.628906 203.015625 232.628906 202.804688 L 232.628906 202.785156 C 232.613281 197.695312 231.132812 192.953125 228.601562 188.949219 C 226.070312 184.949219 222.488281 181.679688 218.265625 179.492188 L 217.65625 180.667969 L 218.273438 181.839844 C 223.96875 178.839844 228.410156 173.855469 230.707031 167.804688 L 229.46875 167.335938 L 228.175781 167.046875 C 228.078125 167.503906 228.039062 167.851562 227.980469 168.070312 C 227.800781 168.746094 228.179688 169.441406 228.839844 169.664062 C 229.507812 169.882812 230.226562 169.554688 230.488281 168.902344 C 231.722656 165.863281 232.460938 162.542969 232.457031 159.015625 L 232.457031 158.949219 L 231.835938 158.949219 L 232.457031 158.957031 L 232.457031 158.949219 L 231.835938 158.949219 L 232.457031 158.957031 L 232.460938 158.929688 C 232.457031 158.71875 232.4375 158.628906 232.441406 158.625 L 231.117188 158.707031 L 232.441406 158.761719 L 232.394531 158.761719 L 232.441406 158.765625 L 232.441406 158.761719 L 232.394531 158.761719 L 232.441406 158.765625 C 232.441406 158.757812 232.457031 158.679688 232.464844 158.496094 L 232.464844 158.445312 C 232.394531 143.902344 220.613281 132.125 206.058594 132.125 L 205.949219 132.125 C 199.367188 132.152344 193.367188 134.59375 188.78125 138.597656 C 184.195312 142.601562 181.007812 148.175781 180.03125 154.480469 L 181.34375 154.679688 L 181.351562 153.355469 L 52.5 152.578125 L 52.492188 153.902344 L 53.800781 153.714844 C 52.90625 147.40625 49.792969 141.792969 45.253906 137.734375 C 40.714844 133.671875 34.742188 131.152344 28.15625 131.050781 L 28.160156 131.050781 C 28.007812 131.046875 27.863281 131.046875 27.714844 131.046875 C 13.328125 131.046875 1.574219 142.617188 1.339844 157.042969 L 2.660156 157.066406 L 1.339844 156.945312 L 1.335938 157.0625 L 1.335938 157.089844 C 1.339844 157.269531 1.347656 157.355469 1.347656 157.355469 L 2.671875 157.3125 L 1.347656 157.246094 L 1.34375 157.3125 C 1.339844 157.359375 1.332031 157.429688 1.332031 157.527344 L 1.339844 157.65625 L 2.660156 157.566406 L 1.335938 157.542969 C 1.332031 157.691406 1.332031 157.835938 1.332031 157.972656 C 1.332031 162.890625 2.699219 167.484375 5.070312 171.402344 C 7.441406 175.320312 10.808594 178.578125 14.8125 180.84375 L 15.464844 179.691406 L 14.847656 178.519531 C 10.714844 180.6875 7.207031 183.898438 4.703125 187.820312 C 2.199219 191.738281 0.710938 196.378906 0.628906 201.382812 L 1.953125 201.40625 L 0.632812 201.308594 C 0.625 201.378906 0.625 201.421875 0.625 201.445312 C 0.625 201.558594 0.632812 201.640625 0.636719 201.6875 L 0.640625 201.734375 L 1.964844 201.734375 L 0.644531 201.625 L 0.632812 201.796875 L 0.628906 201.8125 C 0.625 201.898438 0.625 201.941406 0.625 201.941406 C 0.632812 202.296875 0.671875 202.484375 0.667969 202.511719 L 1.992188 202.464844 L 0.667969 202.496094 C 0.6875 203.339844 0.753906 204.167969 0.847656 204.972656 L 2.164062 204.824219 L 0.84375 204.957031 C 1.988281 216.171875 10.085938 225.386719 20.902344 227.972656 C 21.5625 228.136719 22.242188 227.765625 22.464844 227.121094 C 22.6875 226.476562 22.382812 225.769531 21.765625 225.484375 C 21.238281 225.242188 20.6875 224.898438 20.050781 224.535156 L 19.398438 225.691406 L 18.992188 226.953125 C 21.40625 227.726562 23.976562 228.175781 26.648438 228.210938 C 26.78125 228.214844 26.914062 228.214844 27.046875 228.214844 C 33.574219 228.21875 39.550781 225.832031 44.144531 221.882812 C 48.742188 217.933594 51.964844 212.417969 53.011719 206.144531 L 51.703125 205.929688 L 51.695312 207.253906 L 181.488281 208.042969 L 181.496094 206.71875 L 180.1875 206.921875 C 181.167969 213.257812 184.375 218.851562 188.984375 222.859375 C 193.589844 226.871094 199.613281 229.300781 206.210938 229.300781 L 206.28125 229.300781 C 216.582031 229.257812 225.46875 223.320312 229.792969 214.707031 L 228.609375 214.113281 L 227.363281 213.65625 C 227.109375 214.34375 226.84375 215.003906 226.535156 215.628906 C 226.222656 216.273438 226.464844 217.039062 227.09375 217.378906 C 227.71875 217.71875 228.496094 217.507812 228.863281 216.894531 L 227.726562 216.214844 " fill-opacity="1" fill-rule="nonzero"/></g><g clip-path="url(#aae190d3fd)"><g clip-path="url(#7995efb262)"><path fill="#f5f5f5" d="M 53.59375 131.058594 L 118.792969 131.058594 L 118.792969 172.066406 L 53.59375 172.066406 Z M 53.59375 131.058594 " fill-opacity="1" fill-rule="nonzero"/></g></g><g clip-path="url(#676c4072aa)"><g clip-path="url(#d1eb8dda34)"><path fill="#f5f5f5" d="M 115.648438 135.195312 L 179.910156 135.195312 L 179.910156 175.617188 L 115.648438 175.617188 Z M 115.648438 135.195312 " fill-opacity="1" fill-rule="nonzero"/></g></g></svg>