<svg width="68" height="87" viewBox="0 0 68 87" fill="none" xmlns="http://www.w3.org/2000/svg">
<path d="M26.061 64.2127C27.2054 62.7903 27.0664 63.1718 27.1078 61.3442C28.5303 62.4887 28.1488 62.3497 29.9764 62.3881C28.829 63.8135 28.968 63.4291 28.9295 65.2596C27.5071 64.1122 27.8886 64.2512 26.061 64.2127ZM31.7212 56.5445C32.428 55.6692 32.3422 55.9058 32.3688 54.779C33.2442 55.4858 33.0076 55.3971 34.1343 55.4237C33.4275 56.302 33.5133 56.0655 33.4926 57.1922C32.6113 56.4854 32.8479 56.5682 31.7212 56.5445ZM20.9005 53.9066C22.5477 51.8632 22.3466 52.4103 22.4058 49.7872C24.4463 51.4314 23.9022 51.2333 26.5223 51.2895C24.8781 53.3329 25.0762 52.7858 25.02 55.4089C22.9736 53.7617 23.5236 53.9628 20.9005 53.9066ZM67.3711 60.7587V60.5191C67.3711 56.8166 66.7886 53.6434 65.6204 50.9849C64.4553 48.3292 62.7046 46.0166 60.4097 44.0471C58.1178 42.0746 55.2818 40.386 51.943 38.9813C48.6043 37.5707 44.7805 36.305 40.4954 35.1782C36.8728 34.2112 33.877 33.3684 31.4846 32.6409C29.1129 31.9193 27.2439 31.1534 25.854 30.349C24.4877 29.5417 23.5414 28.6397 23.0179 27.6342C22.4945 26.6258 22.2343 25.4399 22.2343 24.0707V23.8312C22.2343 21.7374 23.1421 19.9897 24.949 18.5791C26.7589 17.1714 29.4766 16.4676 33.0993 16.4676C36.719 16.4676 40.3387 17.2098 43.9614 18.7003C47.584 20.1878 51.2865 22.2224 55.0659 24.7952L64.7214 10.7955C60.3772 7.33549 55.6071 4.67986 50.42 2.83157C45.2241 0.977354 39.5314 0.0517273 33.3359 0.0517273C28.9887 0.0517273 25.0082 0.655011 21.4092 1.86158C17.8072 3.06815 14.6873 4.80111 12.0938 7.0516C9.49728 9.30504 7.48929 11.9814 6.04023 15.0776C4.60891 18.1769 3.88733 21.6546 3.88733 25.5168V25.7593C3.88733 29.9468 4.54976 33.4453 5.88054 36.2606C7.64603 40.0075 9.18973 42.1101 13.0667 43.2812L45.094 52.9603L38.6885 74.0132L7.99203 64.6741V64.6475C5.53749 67.5633 3.08296 70.491 0.628418 73.4335C5.69719 78.0173 11.3278 81.4182 17.5263 83.6302C23.7218 85.8423 30.0385 86.9483 36.4765 86.9483C41.0632 86.9483 45.2478 86.3657 49.0094 85.1976C52.7711 84.0324 56.03 82.3438 58.7477 80.1318C61.3235 78.0321 63.3581 75.4593 64.8634 72.4162L58.5289 70.491C58.3544 70.4378 58.2509 70.2545 58.2923 70.0741L46.2828 66.4218L45.99 67.3889L45.301 67.451L43.2901 74.0634L39.8981 74.371C42.0362 67.3534 44.1684 60.3358 46.3035 53.3182L48.9503 55.4651L46.9393 62.0746L47.4805 62.5123L47.1877 63.4793L59.1972 67.1316C59.2593 66.9601 59.4486 66.8654 59.626 66.9187L66.2474 68.9326C66.9867 66.4455 67.3711 63.7189 67.3711 60.7587Z" fill="#1342a2"/>
</svg>
