<svg width="53" height="44" viewBox="0 0 53 44" fill="none" xmlns="http://www.w3.org/2000/svg">
<path d="M16.77 32.2758C19.8953 27.9089 28.7457 28.9609 30.5009 32.6224L16.77 32.2758Z" fill="#252424"/>
<path d="M23.6626 29.4317C23.4107 27.8537 24.7488 25.5202 25.8301 23.604C25.9955 23.3108 26.1609 23.0194 26.3139 22.7417C26.3929 22.5985 26.5732 22.4933 26.7904 22.464C33.2559 21.6017 35.6703 19.7356 35.5889 19.7977C39.2623 17.0157 38.6649 15.2686 38.1119 13.5491C37.5959 11.9383 37.0676 10.2705 39.8894 8.13189C40.2029 7.89388 40.5559 7.65243 40.9534 7.40407L41.4076 8.18363C36.1172 8.35265 29.6294 11.3157 26.2868 14.6736C24.1983 16.7726 26.2152 20.134 27.2718 21.838C27.4594 22.1381 27.6322 22.4157 27.7014 22.5882C27.7976 22.8262 27.6001 23.0728 27.2619 23.1401C26.9237 23.2074 26.5707 23.0694 26.4744 22.8314C26.4349 22.7348 26.3115 22.5313 26.1016 22.1932C25.1561 20.6686 22.6603 16.7536 25.2401 14.1614C28.7481 10.6396 35.5642 7.47479 41.3508 7.29024C41.6199 7.28162 41.8668 7.39373 41.9705 7.56792C42.0717 7.74384 42.005 7.94562 41.8026 8.07153C41.4323 8.30263 41.1089 8.52512 40.825 8.7407C38.4476 10.543 38.8673 11.8227 39.3586 13.3525C39.9585 15.2221 40.5979 17.321 36.5245 20.4065C36.443 20.4686 33.7917 22.4399 27.0274 23.3419L27.5039 23.0642C27.3483 23.3471 27.1829 23.6385 27.0175 23.9335C25.8745 25.9565 24.7241 28.033 24.9315 29.3317C24.971 29.5783 24.7192 29.7991 24.3686 29.8267C24.018 29.8543 23.7021 29.6766 23.6626 29.4317Z" fill="#252424"/>
<path d="M24.7563 25.4822C24.66 23.8593 23.3096 19.2716 21.2853 18.4093C21.0433 18.3075 20.9322 18.1023 21.0162 17.9143C22.3122 15.0117 20.7347 13.6026 20.7446 13.6112C20.7422 13.6095 20.7471 13.6129 20.7471 13.6129L21.226 13.3456L20.7471 13.6147C19.1424 12.2142 17.0095 11.6606 14.7259 11.0777C13.2916 10.712 11.7857 10.3291 10.4452 9.69446L11.3956 9.39609C10.9439 11.721 13.0842 17.2486 18.6092 17.7781C19.4387 17.8574 20.362 17.8281 21.3914 17.6573C21.7198 17.6021 22.0506 17.7436 22.1296 17.9747C22.2061 18.2058 22.0037 18.4369 21.6753 18.4921C20.5126 18.687 19.4362 18.7232 18.4438 18.6283C11.8153 17.9954 9.71197 11.7003 10.181 9.28053C10.2106 9.13393 10.3464 9.00631 10.539 8.94594C10.7315 8.88558 10.9562 8.89938 11.1315 8.98216C12.3263 9.54786 13.6866 9.89797 15.1456 10.2705C17.3946 10.8448 19.8534 11.4623 21.7049 13.0766C21.7099 13.08 21.7074 13.08 21.7124 13.0835L21.7148 13.0852C21.895 13.249 23.6256 14.9461 22.1863 18.1713L21.9197 17.6746C24.5983 18.8129 25.8894 23.9335 25.9807 25.446C25.9931 25.6823 25.7314 25.8841 25.3932 25.8927C25.055 25.903 24.7686 25.7185 24.7563 25.4822Z" fill="#252424"/>
<path d="M24.581 26.1255C23.8256 24.0111 22.527 21.2154 20.5076 21.5707C20.4755 21.5758 20.4459 21.581 20.4138 21.5879C19.5942 21.7655 19.6806 22.0536 19.6954 21.9087C19.6905 21.9397 19.6831 21.9725 19.6707 22.0018C17.1082 28.0072 9.14169 26.3877 9.06763 26.3722C8.84051 26.3256 8.67017 26.1928 8.63067 26.029C8.59117 25.8651 8.68992 25.7013 8.88248 25.6047C10.4896 24.801 10.6402 24.1646 10.8105 23.5368C10.971 22.9418 11.1512 22.276 12.3732 21.6638C12.4078 21.6465 12.4448 21.6293 12.4819 21.612C15.2764 20.2858 18.4981 20.6152 19.4905 21.6431C19.5275 21.681 19.5596 21.7207 19.5917 21.7604C19.7497 21.9725 19.6337 22.2329 19.335 22.345C19.0338 22.4571 18.6586 22.3761 18.5006 22.1639C18.4932 22.1536 18.4808 22.1415 18.4685 22.1277C18.0216 21.6655 15.6838 21.1378 13.1706 22.3278C13.1435 22.3416 13.1138 22.3554 13.0892 22.3675C12.2745 22.7762 12.1708 23.1522 12.0227 23.6972C11.8202 24.4457 11.561 25.327 9.5984 26.3084L9.41078 25.5409C9.41325 25.5426 9.41325 25.5426 9.41572 25.5426H9.41325C9.55643 25.5719 16.2812 26.9292 18.4882 21.7552L18.4635 21.8483C18.4783 21.7035 18.6586 21.0636 20.0509 20.7618C20.1027 20.7514 20.1546 20.7411 20.2089 20.7307C23.7367 20.1116 25.2377 24.4026 25.7783 25.9151C25.8598 26.148 25.6598 26.3825 25.329 26.4394C24.9982 26.4981 24.6649 26.3567 24.581 26.1255Z" fill="#252424"/>
<path d="M29.1529 18.749C29.4763 18.3403 29.9676 17.5159 30.5477 16.7191C31.1254 15.9206 31.6611 15.0893 32.2511 14.22C32.8387 13.3508 33.5349 12.4522 34.2088 11.8175C34.8803 11.1829 34.8803 11.1829 34.394 11.583C34.394 11.583 33.3003 12.3194 32.2906 13.0679C31.2785 13.8164 30.4391 14.6236 29.8935 15.5118C29.3504 16.4 29.0566 17.3245 29.0764 17.8039C28.9801 18.7266 29.2714 18.3058 29.1529 18.749Z" fill="#252424"/>
<path d="M30.0935 16.5656C30.1701 16.5311 30.3256 16.4483 30.5083 16.369C30.691 16.2896 30.9033 16.2138 31.1452 16.1379C31.3847 16.062 31.6538 15.9861 31.9401 15.9137C32.2265 15.8429 32.424 15.636 32.698 15.5204C32.9745 15.4049 33.2683 15.2893 33.5794 15.1789C33.8904 15.0686 34.2286 14.9892 34.4953 14.9427C34.7619 14.8961 34.7619 14.8961 34.5841 14.9271C34.5841 14.9271 34.2286 14.9892 33.8781 15.0306C33.5251 15.072 33.1794 15.11 32.8462 15.1582C32.5104 15.2065 32.1895 15.2669 31.8661 15.3186C31.5451 15.3721 31.2736 15.5084 31.0366 15.6429C30.7971 15.7774 30.5922 15.9102 30.4219 16.0413C30.2491 16.1724 30.1108 16.2983 30.0615 16.369C29.9553 16.4897 30.1503 16.5156 30.0935 16.5656Z" fill="#252424"/>
<path d="M18.898 15.5239C18.8264 15.467 18.6659 15.3687 18.5055 15.2635C18.345 15.1565 18.1845 15.0444 18.0216 14.9271C17.8611 14.8081 17.6982 14.684 17.5822 14.5977C17.4686 14.5115 17.3551 14.4184 17.1378 14.2373C16.923 14.0562 16.4589 13.9027 15.9257 13.6423C15.3949 13.3818 14.7308 13.0628 14.2272 12.7506C13.7261 12.4367 13.7261 12.4367 14.0495 12.654C14.0495 12.654 14.6617 13.1145 15.1184 13.5336C15.5751 13.9527 15.9454 14.2838 16.2318 14.5236C16.5182 14.7633 16.7601 14.884 16.8835 14.9392C17.007 14.9961 17.2193 15.091 17.4365 15.179C17.6538 15.2686 17.8661 15.348 18.0784 15.4204C18.2907 15.4911 18.4981 15.5549 18.6092 15.5739C18.8116 15.6308 18.8067 15.4877 18.898 15.5239Z" fill="#252424"/>
<path d="M16.0417 22.5313C15.9306 22.5347 15.6862 22.5968 15.3875 22.7107C15.0888 22.8228 14.7382 22.9866 14.4642 23.2919C14.1926 23.5954 13.8717 23.9421 13.5582 24.1973C13.2471 24.4526 13.2471 24.4526 13.4569 24.2836C13.4569 24.2836 13.884 23.949 14.3259 23.7127C14.7654 23.4747 15.185 23.3195 15.4196 23.1211C15.6566 22.9245 15.8541 22.7865 15.9331 22.7279C16.0985 22.6468 15.9528 22.5537 16.0417 22.5313Z" fill="#252424"/>
<path d="M0.994896 36.8462L8.71948 32.8587C8.77132 32.8311 8.8281 32.8121 8.88982 32.7966C12.6398 31.936 16.9008 31.9463 21.6283 31.9515C22.2727 31.9532 22.9195 31.9532 23.5836 31.9532C29.7134 31.9429 32.1697 33.1898 32.2586 34.1884C32.2611 34.2057 32.2611 34.2212 32.2611 34.2384C32.2635 34.4765 32.1006 34.7352 31.7155 34.8524C30.3231 35.275 27.773 35.7993 23.9958 36.2874C23.67 36.3305 23.3564 36.1787 23.2972 35.9511C23.2355 35.7217 23.4503 35.5026 23.7761 35.4612C27.5187 34.9766 29.9676 34.4661 31.2415 34.0798C31.086 34.1263 31.0613 34.2247 31.0637 34.2402V34.2419C31.0489 34.0953 29.9158 32.7828 23.586 32.7932C22.9219 32.7949 22.2702 32.7949 21.6259 32.7932C16.844 32.7863 12.7953 32.7845 9.26259 33.5969L9.43047 33.5348L1.70588 37.524C1.43926 37.6619 1.06402 37.6206 0.866523 37.4343C0.671496 37.248 0.728275 36.9841 0.994896 36.8462Z" fill="#252424"/>
<path d="M6.78654 43.2551C8.73188 41.9357 14.4938 39.5384 15.3357 39.347C15.3653 39.3401 15.4073 39.3314 15.4517 39.3245C15.5184 39.3159 15.5801 39.3142 15.6245 39.3142C15.98 39.3125 16.8712 39.4504 17.8636 39.5988C20.4015 39.9782 24.1366 40.5284 25.8672 40.2973C26.0523 40.2714 26.1881 40.2403 26.2868 40.2076C39.4673 35.7976 43.8714 33.1847 43.9776 32.5465C43.9776 32.5465 43.9776 32.55 43.9776 32.5551C43.9751 32.531 43.7135 32.1964 42.21 32.2309C41.2077 32.2551 39.966 32.462 38.7884 32.9053C33.7892 34.7852 30.2269 35.2474 30.18 35.2543C29.864 35.2939 29.5579 35.1594 29.4715 34.9421C29.3875 34.7248 29.5529 34.4989 29.8517 34.4195C36.5838 32.6604 42.8346 30.0388 42.331 29.0937C42.331 29.092 42.331 29.0903 42.3285 29.0885V29.0868C42.1754 28.8247 41.894 28.6729 40.7782 28.992C39.7561 29.2851 38.4477 29.8819 36.927 30.5787C35.1149 31.4082 33.0412 32.3603 31.012 32.9415C30.6244 33.0536 30.2393 33.1502 29.8517 33.233C29.548 33.2968 29.2246 33.1898 29.1012 32.9863C28.9802 32.7811 29.0987 32.5431 29.3752 32.4361C34.1596 30.6028 35.9592 29.2489 35.8259 28.9109C35.8259 28.9109 35.8259 28.9109 35.8259 28.9126C35.8259 28.9126 35.821 28.904 35.7889 28.8885C34.6385 28.3055 30.9626 30.1596 28.1557 31.6652C27.9335 31.7859 27.7236 31.8963 27.5311 31.9998C27.2571 32.1447 26.8695 32.1067 26.6646 31.9153C26.4572 31.7239 26.5115 31.4531 26.7831 31.3082C26.9732 31.2082 27.1805 31.0961 27.4027 30.9771C29.5776 29.8112 34.3941 27.1103 36.5147 28.1865C36.6653 28.2624 36.7986 28.3573 36.8949 28.4745V28.4763C36.9023 28.4832 36.9072 28.4883 36.9122 28.4952C36.9566 28.5539 36.9912 28.6142 37.0183 28.6763C37.4849 29.8526 34.1818 31.5842 29.9702 33.1985L29.4937 32.4017C29.8369 32.3292 30.1874 32.2413 30.5429 32.1395C32.4413 31.5945 34.4138 30.6925 36.2506 29.8526C37.7293 29.1748 39.1513 28.5211 40.3091 28.19C41.4743 27.8554 42.8741 27.7329 43.474 28.7591C43.4789 28.7677 43.4863 28.7815 43.4913 28.7902C44.5503 30.7804 36.0605 33.7245 30.2837 35.2336L29.9578 34.4006C29.9109 34.4057 33.3449 33.9677 38.2033 32.1395C39.5487 31.6342 40.9757 31.3927 42.168 31.3651C43.4197 31.3358 45.17 31.5635 45.2144 32.5258C45.2169 32.5672 45.212 32.6069 45.207 32.6466C44.9996 33.8918 39.5833 36.7203 26.8201 40.9906C26.6004 41.0647 26.3535 41.1148 26.1017 41.1493C24.0576 41.4235 19.9991 40.806 17.6044 40.4473C16.4984 40.2817 15.8097 40.1817 15.6294 40.1817C15.627 40.1817 15.6467 40.1817 15.6838 40.1783C15.706 40.1748 15.7208 40.1714 15.7158 40.1714H15.7183C15.0863 40.3162 9.48236 42.6342 7.64812 43.8777C7.40125 44.045 7.01119 44.0398 6.77172 43.8674C6.53473 43.6949 6.54214 43.4207 6.78654 43.2551Z" fill="#252424"/>
<mask id="mask0_4007_167" style="mask-type:luminance" maskUnits="userSpaceOnUse" x="0" y="0" width="51" height="31">
<path d="M0 0H50.4851V30.3269H0V0Z" fill="white"/>
</mask>
<g mask="url(#mask0_4007_167)">
<path d="M6.92726 29.8284L5.53984 28.7143C5.5275 28.7039 5.51516 28.6936 5.50528 28.6832L4.25859 27.4897C4.24624 27.4794 4.23637 27.4673 4.22649 27.457L3.13039 26.191C3.12298 26.1807 3.11311 26.1686 3.1057 26.1565L2.16759 24.8303C2.16019 24.8199 2.15278 24.8078 2.14537 24.7958L1.37514 23.4178C1.36773 23.4057 1.36279 23.3919 1.35786 23.3798L0.75796 21.9604C0.753023 21.9483 0.748085 21.9362 0.745617 21.9224L0.323468 20.4737C0.318531 20.4599 0.316062 20.4478 0.313593 20.434L0.07166 18.9646C0.0691908 18.9508 0.0667225 18.9387 0.0667225 18.9249L0.00500488 17.4452C0.00500488 17.4331 0.00500488 17.4193 0.00500488 17.4072L0.125972 15.9292C0.125972 15.9171 0.12844 15.9033 0.130909 15.8912L0.432091 14.4252C0.43456 14.4132 0.437029 14.3994 0.441966 14.3873L0.920895 12.9455C0.923364 12.9334 0.928302 12.9213 0.935707 12.9075L1.58745 11.5002C1.59485 11.4881 1.59979 11.476 1.6072 11.464L2.43174 10.1015C2.43915 10.0894 2.44656 10.0773 2.45643 10.067L3.44391 8.75793C3.45132 8.74586 3.46119 8.73551 3.47107 8.72516L4.61408 7.47994C4.62642 7.46959 4.6363 7.45924 4.64864 7.4489L5.93978 6.27784C5.95212 6.26749 5.96446 6.25886 5.97681 6.24852L7.40619 5.16024C7.41853 5.15162 7.43334 5.14127 7.44569 5.13264L9.00591 4.13578C9.01825 4.12715 9.03306 4.11853 9.04788 4.10991L10.7241 3.20962C10.7389 3.20272 10.7538 3.1941 10.7686 3.1872L12.5485 2.39212C12.5658 2.38522 12.5806 2.37832 12.5979 2.37142L14.4692 1.68673C14.484 1.67983 14.5012 1.67465 14.5185 1.66948L16.4663 1.09861C16.4836 1.09343 16.5009 1.08998 16.5182 1.08653L18.5302 0.634667C18.5475 0.631218 18.5647 0.627769 18.582 0.624319L20.6187 0.298354C20.636 0.296629 20.6557 0.29318 20.673 0.291455L22.7418 0.089667C22.7591 0.0879424 22.7788 0.0862175 22.7961 0.084493L24.8822 0.00688216C24.9019 0.00515758 24.9192 0.00515747 24.9365 0.00515747L27.025 0.051724C27.0423 0.051724 27.062 0.0534488 27.0793 0.0551733L29.1555 0.224192C29.1728 0.225917 29.1901 0.227642 29.2098 0.231091L31.2564 0.522563C31.2736 0.526012 31.2909 0.529462 31.3082 0.532911L33.3128 0.946835C33.3301 0.950285 33.3474 0.953734 33.3646 0.958908L35.31 1.49011C35.3273 1.49529 35.3445 1.50046 35.3618 1.50563L37.2356 2.15239C37.2528 2.15756 37.2677 2.16446 37.2849 2.17136L39.0748 2.92677C39.0896 2.93195 39.1044 2.94057 39.1192 2.94747L40.8103 3.80636C40.8251 3.81326 40.8399 3.82188 40.8547 3.83051L42.4347 4.78771C42.4495 4.79633 42.4618 4.80495 42.4766 4.81358L43.9356 5.86219C43.948 5.87081 43.9603 5.87943 43.9727 5.88978L45.2984 7.02117C45.3107 7.03152 45.3206 7.04187 45.3329 7.05222L46.5179 8.25777C46.5278 8.26812 46.5377 8.27847 46.5451 8.29054L47.5794 9.56164C47.5893 9.57371 47.5992 9.58578 47.6066 9.59613L48.483 10.9259C48.4904 10.9379 48.4978 10.95 48.5027 10.9621L49.2162 12.3384C49.2211 12.3504 49.2285 12.3625 49.231 12.3746L49.7741 13.7888C49.7791 13.8009 49.784 13.8147 49.7865 13.8268L50.1568 15.2686C50.1592 15.2807 50.1617 15.2928 50.1642 15.3066L50.3567 16.7639C50.3592 16.7777 50.3592 16.7898 50.3592 16.8036L50.374 18.2678C50.374 18.2799 50.374 18.2937 50.374 18.3058L50.2111 19.7666C50.2086 19.7787 50.2086 19.7907 50.2037 19.8045L49.8655 21.2498C49.8087 21.4965 49.4754 21.6655 49.1199 21.6241C48.7669 21.5827 48.5274 21.3499 48.5867 21.1015L48.9249 19.6562L48.9175 19.6959L49.0804 18.2351L49.078 18.2747L49.0607 16.8105L49.0656 16.8484L48.8706 15.3911L48.878 15.429L48.5102 13.9872L48.5225 14.0251L47.9794 12.6109L47.9967 12.6488L47.2832 11.2725L47.3054 11.307L46.429 9.97901L46.4537 10.0135L45.4193 8.74069L45.449 8.77345L44.264 7.5679L44.2961 7.59894L42.9704 6.46755L43.0074 6.49687L41.5459 5.44999L41.5879 5.47586L40.0055 4.51866L40.0499 4.5428L38.3588 3.68391L38.4033 3.70461L36.6159 2.95092L36.6628 2.96817L34.7891 2.32313L34.8385 2.33866L32.8931 1.80745L32.945 1.81953L30.9428 1.4056L30.9971 1.41422L28.9506 1.12103L29.0049 1.12793L26.9287 0.957183L26.9855 0.960633L24.897 0.915791L24.9513 0.914066L22.8677 0.993402L22.922 0.989952L20.8532 1.19347L20.9075 1.18657L18.8709 1.51081L18.9252 1.50046L16.9132 1.95233L16.9675 1.93853L15.0197 2.5094L15.0691 2.49215L13.1978 3.17858L13.2471 3.15961L11.4672 3.95469L11.5141 3.93226L9.83786 4.83255L9.87983 4.80668L8.32208 5.80527L8.36158 5.77768L6.92973 6.86595L6.96676 6.83491L5.67316 8.00597L5.70525 7.9732L4.56224 9.2167L4.58939 9.18393L3.60191 10.4912L3.6266 10.4567L2.80205 11.8192L2.8218 11.783L2.17006 13.1904L2.18487 13.1524L1.70594 14.5925L1.71582 14.5546L1.41464 16.0206L1.42204 15.9809L1.30108 17.459V17.4193L1.36526 18.8991L1.36032 18.8594L1.60226 20.3288L1.59485 20.2909L2.017 21.7414L2.00219 21.7034L2.60208 23.1228L2.5848 23.0849L3.35504 24.4629L3.33035 24.4267L4.26846 25.753L4.24131 25.7202L5.33741 26.9844L5.30532 26.9516L6.55201 28.1468L6.51745 28.1158L7.90487 29.2299C8.13939 29.4197 8.11224 29.7077 7.84315 29.8732C7.57159 30.0371 7.16179 30.0181 6.92726 29.8284Z" fill="#252424"/>
</g>
<path d="M47.1473 19.8356C47.4238 20.1909 49.068 21.4827 49.4235 21.6431C49.4333 21.6465 49.3988 21.6293 49.3346 21.6155C49.1717 21.581 49.0532 21.612 49.0951 21.6051C49.5272 21.5241 51.5416 20.5841 51.8255 20.3616C51.8354 20.3547 51.8008 20.3789 51.7663 20.4254C51.9243 20.1995 52.3119 20.1047 52.6353 20.215C52.9562 20.3254 53.092 20.5979 52.934 20.8238C52.8871 20.8911 52.8229 20.9429 52.7933 20.9687C52.381 21.2912 50.1567 22.3485 49.4259 22.4847C49.3642 22.4951 49.1667 22.5313 48.9544 22.4864C48.8532 22.464 48.7717 22.4295 48.7273 22.4106C48.1471 22.1519 46.3647 20.7324 46.0068 20.2685C45.8364 20.0477 45.9525 19.7718 46.2685 19.6528C46.582 19.5321 46.977 19.6148 47.1473 19.8356Z" fill="#252424"/>
</svg>
