<svg width="53" height="46" viewBox="0 0 53 46" fill="none" xmlns="http://www.w3.org/2000/svg">
<mask id="mask0_4007_143" style="mask-type:luminance" maskUnits="userSpaceOnUse" x="12" y="0" width="9" height="12">
<path d="M12.8104 0.969482H20.6622V11.8192H12.8104V0.969482Z" fill="white"/>
</mask>
<g mask="url(#mask0_4007_143)">
<path d="M16.6484 11.3155L17.6728 7.64269L20.2165 6.13133L17.6564 4.64638L16.5932 0.985794L15.5708 4.65857L13.0251 6.16993L15.5871 7.65488L16.6484 11.3155Z" fill="#252424"/>
</g>
<mask id="mask1_4007_143" style="mask-type:luminance" maskUnits="userSpaceOnUse" x="0" y="10" width="11" height="16">
<path d="M0 10.2593H10.7166V25.8605H0V10.2593Z" fill="white"/>
</mask>
<g mask="url(#mask1_4007_143)">
<path d="M7.05849 16.6681L5.27342 10.385L3.4863 16.6681L0 18.4151L3.78688 20.3124L5.27342 25.5392L6.75791 20.3124L10.5468 18.4151L7.05849 16.6681Z" fill="#252424"/>
</g>
<path d="M11.5672 36.8663L12.61 40.533L13.6529 36.8663L16.2047 35.3672L13.6529 33.87L12.61 30.2013L11.5672 33.87L9.01535 35.3672L11.5672 36.8663Z" fill="#252424"/>
<mask id="mask2_4007_143" style="mask-type:luminance" maskUnits="userSpaceOnUse" x="18" y="12" width="29" height="34">
<path d="M18.3271 12.5931H46.238V45.0305H18.3271V12.5931Z" fill="white"/>
</mask>
<g mask="url(#mask2_4007_143)">
<path d="M20.3637 33.1975C20.5927 32.8461 20.9464 32.6044 21.3594 32.517C21.4699 32.4926 21.5803 32.4825 21.6907 32.4825C21.9933 32.4825 22.2898 32.5678 22.5495 32.7344L25.2404 34.4692C25.5451 34.6662 25.9438 34.6479 26.2301 34.4245C26.5163 34.2031 26.6267 33.8232 26.5081 33.4819L22.9053 23.2152C22.6395 22.4555 23.0443 21.6226 23.8111 21.3565C24.4981 21.1188 25.2567 21.4256 25.5921 22.0553L28.7247 30.9894C28.8473 31.3368 29.1765 31.5562 29.5282 31.5562C29.6223 31.5562 29.7164 31.5399 29.8084 31.5094C30.2521 31.355 30.4872 30.8736 30.3318 30.4328L27.2606 21.6775C27.2524 21.6348 27.2422 21.5901 27.2279 21.5474L25.8743 17.6918C25.7454 17.3242 25.7679 16.928 25.9397 16.5766C26.1115 16.2252 26.41 15.9631 26.7801 15.8331C27.5366 15.5711 28.375 15.9692 28.647 16.7188C28.6633 16.7655 28.6838 16.8082 28.7062 16.8488L33.1331 29.4638C33.2558 29.8132 33.585 30.0306 33.9367 30.0306C34.0287 30.0306 34.1228 30.0164 34.2169 29.9839C34.6606 29.8295 34.8937 29.348 34.7403 28.9072L30.2337 16.0647C30.1089 15.37 30.5118 14.6712 31.1968 14.4355C31.9615 14.1694 32.8019 14.5737 33.0677 15.3334L34.4602 19.3028C34.4929 19.3921 34.5379 19.4734 34.5951 19.5465L37.5396 27.9382C37.6623 28.2876 37.9915 28.507 38.3432 28.507C38.4372 28.507 38.5313 28.4908 38.6233 28.4583C39.067 28.3059 39.3022 27.8245 39.1468 27.3837L36.0387 18.5207C35.9937 17.8787 36.3863 17.2632 37.0182 17.0438C37.785 16.7798 38.6233 17.182 38.8912 17.9437L42.995 29.6446C43.0011 29.7198 43.0154 29.7949 43.042 29.8681L44.0685 32.7973C45.4466 36.722 43.3508 41.0286 39.3983 42.3977L37.8913 42.9178C35.4642 43.7567 32.7978 43.3281 30.7571 41.768C30.7387 41.7538 30.7183 41.7396 30.6999 41.7274L20.8278 35.3691C20.4741 35.1395 20.2307 34.7881 20.1428 34.3798C20.0549 33.9695 20.1326 33.549 20.3637 33.1975ZM18.4784 34.7312C18.6604 35.5824 19.1654 36.3137 19.9015 36.787L29.745 43.129C31.3971 44.3804 33.3785 45.0304 35.3885 45.0304C36.415 45.0304 37.4496 44.8598 38.4515 44.5145L39.9565 43.9924C44.7985 42.3185 47.3626 37.047 45.6777 32.2407L44.7228 29.5227C44.7187 29.4476 44.7044 29.3724 44.6778 29.3013L40.4983 17.3871C39.9238 15.7458 38.1101 14.8763 36.4579 15.4492C35.9631 15.6198 35.5357 15.9042 35.1963 16.2638L34.6749 14.7768C34.1003 13.1354 32.2866 12.266 30.6365 12.8388C29.8043 13.1253 29.1643 13.7286 28.8146 14.468C28.0478 14.0414 27.1073 13.9297 26.2198 14.2364C25.4203 14.5147 24.7762 15.0835 24.4061 15.8412C24.0381 16.599 23.989 17.4542 24.2671 18.2485L24.7497 19.6217C24.2589 19.5485 23.7457 19.5892 23.2508 19.7618C21.5987 20.3327 20.7235 22.1325 21.2981 23.7718L24.0831 31.7085L23.4758 31.3165C22.7397 30.8431 21.8625 30.6827 21.0037 30.8634C20.1469 31.0442 19.4108 31.548 18.9344 32.2773C18.4579 33.0086 18.2944 33.8801 18.4784 34.7312Z" fill="#252424"/>
</g>
<mask id="mask3_4007_143" style="mask-type:luminance" maskUnits="userSpaceOnUse" x="13" y="4" width="40" height="33">
<path d="M13.8573 4.01868H53V36.2611H13.8573V4.01868Z" fill="white"/>
</mask>
<g mask="url(#mask3_4007_143)">
<path d="M15.4072 14.6774C14.4911 16.5686 13.5853 20.7228 15.0555 23.8166C15.9409 25.6835 17.5133 26.9044 19.7277 27.4467C20.1837 27.5585 20.6458 27.2822 20.7583 26.8292C20.8708 26.3762 20.5927 25.9191 20.1347 25.8054C18.4416 25.391 17.2515 24.4789 16.5952 23.0975C15.3336 20.4364 16.2823 16.7697 16.9407 15.4087C17.5051 14.2406 18.8649 13.686 20.3023 13.099C21.2184 12.7252 22.1671 12.3372 22.9523 11.7643C24.1669 10.8786 24.9623 9.92388 25.6637 9.08288C26.8026 7.71575 27.7043 6.63707 30.0497 6.13938C33.172 5.47511 34.5583 6.24704 37.3208 7.78278L37.3801 7.81528C39.0098 8.72332 40.7355 9.27789 42.402 9.81621C45.8679 10.9335 48.8593 11.8984 50.4727 15.6118C51.2169 17.3263 50.9716 18.407 50.6301 19.9021C50.5136 20.41 50.395 20.932 50.3009 21.5313C50.0801 22.9269 50.0801 24.3428 50.0821 25.7119C50.0821 27.0811 50.0842 28.3751 49.8817 29.6406C49.5566 31.6761 48.6242 33.1875 47.0313 34.2621C46.6408 34.5241 46.5406 35.0503 46.8044 35.4362C46.97 35.678 47.2379 35.808 47.5098 35.808C47.6734 35.808 47.8411 35.7592 47.9862 35.6617C49.9901 34.3088 51.1597 32.4277 51.5625 29.9068C51.7854 28.5071 51.7854 27.0851 51.7833 25.7119C51.7833 24.3468 51.7813 23.0589 51.9817 21.7933C52.0676 21.251 52.18 20.7553 52.2904 20.2779C52.6544 18.6751 53 17.1638 52.0369 14.9435C50.1169 10.5272 46.4629 9.34899 42.9275 8.20938C41.3387 7.69543 39.6968 7.16727 38.2123 6.34049L38.153 6.30799C35.3169 4.72959 33.444 3.68951 29.6939 4.48582C26.7699 5.1054 25.541 6.58019 24.353 8.0042C23.6823 8.80864 22.9891 9.63948 21.9422 10.4033C21.3267 10.8543 20.515 11.1854 19.6562 11.5348C18.0613 12.1869 16.2537 12.9243 15.4072 14.6774Z" fill="#252424"/>
</g>
</svg>
