<svg width="30" height="42" viewBox="0 0 41 52" fill="none" xmlns="http://www.w3.org/2000/svg">
<path d="M15.6232 38.3948C16.3262 37.5436 16.2409 37.7718 16.2663 36.6782C17.1401 37.3631 16.9058 37.2799 18.0284 37.3029C17.3236 38.1559 17.409 37.9258 17.3854 39.0212C16.5115 38.3346 16.7459 38.4178 15.6232 38.3948ZM19.1003 33.806C19.5345 33.2822 19.4818 33.4238 19.4981 32.7495C20.0358 33.1725 19.8905 33.1194 20.5827 33.1353C20.1485 33.6609 20.2012 33.5193 20.1884 34.1936C19.6471 33.7706 19.7924 33.8202 19.1003 33.806ZM12.4531 32.2275C13.465 31.0046 13.3415 31.332 13.3778 29.7623C14.6313 30.7463 14.297 30.6277 15.9066 30.6613C14.8965 31.8842 15.0183 31.5568 14.9837 33.1265C13.7266 32.1408 14.0645 32.2611 12.4531 32.2275ZM41 36.3278V36.1845C41 33.9688 40.6421 32.07 39.9245 30.479C39.2088 28.8899 38.1333 27.506 36.7236 26.3274C35.3157 25.147 33.5735 24.1365 31.5225 23.2959C29.4715 22.4518 27.1226 21.6944 24.4903 21.0201C22.2649 20.4415 20.4246 19.9371 18.9549 19.5018C17.498 19.07 16.3499 18.6116 15.496 18.1303C14.6567 17.6472 14.0754 17.1074 13.7539 16.5057C13.4323 15.9023 13.2725 15.1926 13.2725 14.3733V14.2299C13.2725 12.977 13.8302 11.9311 14.9401 11.087C16.0519 10.2446 17.7214 9.82344 19.9468 9.82344C22.1704 9.82344 24.394 10.2676 26.6194 11.1595C28.8448 12.0497 31.1192 13.2672 33.4409 14.8068L39.3723 6.42921C36.7036 4.3587 33.7734 2.76953 30.587 1.66349C27.3951 0.553907 23.898 0 20.0922 0C17.4217 0 14.9765 0.361013 12.7656 1.08304C10.5529 1.80506 8.63636 2.84209 7.04316 4.18881C5.44814 5.5373 4.21463 7.13885 3.32447 8.9917C2.44521 10.8463 2.00195 12.9274 2.00195 15.2386V15.3837C2.00195 17.8896 2.40888 19.9831 3.22637 21.6678C4.31091 23.91 5.25921 25.1683 7.64083 25.869L27.3152 31.6612L23.3803 44.2595L4.52346 38.6708V38.6549C3.01564 40.3998 1.50782 42.1518 0 43.9126C3.11374 46.6556 6.57264 48.6907 10.3803 50.0144C14.1862 51.3381 18.0666 52 22.0214 52C24.8391 52 27.4096 51.6514 29.7204 50.9524C32.0312 50.2551 34.0331 49.2446 35.7026 47.9209C37.2849 46.6644 38.5348 45.1248 39.4595 43.3038L35.5682 42.1518C35.461 42.1199 35.3974 42.0102 35.4229 41.9023L28.0455 39.7167L27.8656 40.2954L27.4423 40.3326L26.207 44.2895L24.1233 44.4736C25.4368 40.2742 26.7466 36.0747 28.0582 31.8753L29.6841 33.1601L28.4488 37.1153L28.7812 37.3772L28.6014 37.9559L35.9788 40.1414C36.0169 40.0388 36.1332 39.9822 36.2422 40.014L40.3097 41.2192C40.7638 39.7309 41 38.0992 41 36.3278Z" fill="#1343A2"/>
</svg>
