<svg width="36" height="34" viewBox="0 0 36 34" fill="none" xmlns="http://www.w3.org/2000/svg">
<path d="M1.8441 32.6943C0.0519678 30.9533 0.0519678 28.1357 1.8441 26.3947L13.5283 15.0439C13.7957 14.7841 14.2307 14.7841 14.4981 15.0439L20.0128 20.4013C20.2818 20.6611 20.2818 21.0836 20.0128 21.3449L8.33019 32.6943C6.53806 34.4353 3.63623 34.4353 1.8441 32.6943ZM14.014 16.4579L2.81547 27.3369C1.55975 28.5568 1.55822 30.5322 2.81547 31.7521C4.07119 32.972 6.10309 32.972 7.35881 31.7521L18.5573 20.8731L14.014 16.4579Z" fill="#252424"/>
<path d="M16.7452 23.5757L11.2305 18.2183C10.963 17.9585 10.963 17.5359 11.2305 17.2761C11.4995 17.0148 11.9329 17.0148 12.2019 17.2761L17.7166 22.6335C17.984 22.8933 17.984 23.3159 17.7166 23.5757C17.4476 23.8355 17.0142 23.8355 16.7452 23.5757Z" fill="#252424"/>
<path d="M14.3198 25.9318L8.80513 20.5744C8.53769 20.3146 8.53769 19.8921 8.80513 19.6323C9.07257 19.3725 9.50753 19.3725 9.77497 19.6323L15.2897 24.9896C15.5587 25.2494 15.5587 25.672 15.2897 25.9318C15.0223 26.1931 14.5873 26.1931 14.3198 25.9318Z" fill="#252424"/>
<path d="M17.8181 20.1534L14.7533 17.1776C14.4859 16.9163 14.4859 16.4952 14.7533 16.2339L26.2485 5.06825L26.8095 3.43178C26.8556 3.2974 26.9432 3.18242 27.0615 3.1003L31.3513 0.124483C31.6233 -0.0651457 31.9983 -0.0352828 32.235 0.19466L35.2982 3.17048C35.5365 3.40191 35.5672 3.76475 35.372 4.03053L32.3088 8.19637C32.2243 8.31135 32.1044 8.39795 31.966 8.44125L30.2815 8.98774L18.7879 20.1534C18.5205 20.4132 18.0855 20.4147 17.8181 20.1534ZM16.2088 16.7058L18.3022 18.7394L29.4254 7.93358C29.5007 7.86042 29.5929 7.80517 29.6944 7.77232L31.3205 7.24525L33.9165 3.71398L31.6756 1.53699L28.0406 4.05889L27.498 5.63863C27.4642 5.73718 27.4073 5.82677 27.332 5.89993L16.2088 16.7058Z" fill="#252424"/>
<path d="M25.4169 32.318C23.7769 30.7233 23.2559 28.3164 24.069 26.2275L17.8165 20.1534C17.549 19.8936 17.549 19.4711 17.8165 19.2113C18.0855 18.9515 18.5189 18.9515 18.7879 19.2113L25.2816 25.5198C25.5322 25.7676 25.6013 26.1424 25.4553 26.456C24.6884 28.1118 25.0634 30.0888 26.3867 31.3743C27.498 32.4554 29.0918 32.8824 30.5842 32.5584L28.4924 30.5248C28.2234 30.2649 28.2234 29.8424 28.4924 29.5811L30.9531 27.1906C31.2206 26.9308 31.6555 26.9308 31.923 27.1906L34.0163 29.2242C34.3483 27.7744 33.9103 26.226 32.7975 25.1465C31.4742 23.8594 29.4392 23.4966 27.7331 24.2416C27.4119 24.3835 27.0261 24.3163 26.7741 24.0759L20.2772 17.7644C20.0098 17.5031 20.0098 17.0821 20.2772 16.8208C20.5446 16.5609 20.9796 16.5609 21.247 16.8208L27.4995 22.8948C29.6498 22.105 32.1289 22.6096 33.7689 24.2028C35.5349 25.9184 35.9975 28.5434 34.9216 30.7323C34.7187 31.1459 34.1531 31.243 33.8181 30.9174L31.4373 28.6046L29.9479 30.0529L32.3272 32.3658C32.6607 32.6898 32.5654 33.2393 32.1381 33.4379C29.8742 34.4875 27.1752 34.0262 25.4169 32.318Z" fill="#252424"/>
<path d="M14.7534 17.1776L8.50248 11.1051C6.35069 11.8934 3.87307 11.3888 2.2331 9.79559C0.4671 8.07997 0.00292879 5.45504 1.07882 3.2661C1.28324 2.85101 1.84885 2.75545 2.18392 3.08096L4.56317 5.39382L6.05405 3.94548L3.67479 1.63411C3.33973 1.3086 3.43656 0.75913 3.86384 0.560543C6.11861 -0.484652 8.8191 -0.0337251 10.5851 1.68189C12.2251 3.27506 12.7461 5.68349 11.933 7.77239L18.184 13.845C18.4514 14.1048 18.4514 14.5273 18.184 14.7871C17.9165 15.0484 17.4816 15.0484 17.2141 14.7871L10.7204 8.47864C10.4683 8.23078 10.3991 7.856 10.5451 7.54244C11.3121 5.88805 10.9386 3.90965 9.61526 2.62406C8.50248 1.54452 6.90862 1.11748 5.4162 1.44149L7.50958 3.47365C7.77702 3.73495 7.77702 4.15601 7.50958 4.41731L5.04886 6.80782C4.91976 6.93325 4.74608 7.00342 4.56317 7.00342C4.38181 7.00342 4.20659 6.93325 4.07902 6.80782L1.98564 4.77417C1.65212 6.22401 2.0917 7.77239 3.20294 8.85192C4.52629 10.139 6.5628 10.5018 8.26732 9.75676C8.59008 9.61492 8.97587 9.68211 9.2264 9.9225L15.7232 16.2355C15.9922 16.4953 15.9922 16.9178 15.7232 17.1776C15.4558 17.4375 15.0208 17.4375 14.7534 17.1776Z" fill="#252424"/>
</svg>
