<svg width="24" height="24" viewBox="0 0 45 45" fill="none" xmlns="http://www.w3.org/2000/svg">
<mask id="mask0_4007_35" style="mask-type:luminance" maskUnits="userSpaceOnUse" x="0" y="0" width="45" height="45">
<path d="M0 0H45V45H0V0Z" fill="white"/>
</mask>
<g mask="url(#mask0_4007_35)">
<path d="M38.4098 6.59017C34.1607 2.34049 28.5102 0 22.5 0C16.4898 0 10.8398 2.34049 6.59017 6.59017C2.34049 10.8398 0 16.4903 0 22.5C0 28.5097 2.34049 34.1602 6.59017 38.4098C10.8398 42.6595 16.4898 45 22.5 45C28.5102 45 34.1607 42.6595 38.4098 38.4098C42.6595 34.1602 45 28.5102 45 22.5C45 16.4898 42.6595 10.8398 38.4098 6.59017Z" fill="#5F5D5D"/>
</g>
<path d="M27.8739 11.8132C28.0497 11.9889 28.2168 12.1734 28.3747 12.366C28.5326 12.5581 28.6807 12.7577 28.819 12.965C28.9568 13.1717 29.0849 13.3849 29.202 13.6046C29.3198 13.8238 29.4256 14.0484 29.521 14.2784C29.6165 14.5085 29.7001 14.7423 29.7722 14.9805C29.8444 15.2186 29.9052 15.4601 29.9534 15.7042C30.0023 15.9484 30.0386 16.1941 30.063 16.4415C30.0875 16.6895 30.0994 16.9379 30.0994 17.1864C30.0994 17.4354 30.0875 17.6839 30.063 17.9313C30.0386 18.1793 30.0023 18.425 29.9534 18.6692C29.9052 18.9133 29.8444 19.1542 29.7722 19.3924C29.7001 19.6305 29.6165 19.8649 29.521 20.0944C29.4256 20.3244 29.3198 20.5491 29.202 20.7688C29.0849 20.988 28.9568 21.2012 28.819 21.4084C28.6807 21.6151 28.5326 21.8148 28.3747 22.0074C28.2168 22.2 28.0497 22.3839 27.8739 22.5597C27.6976 22.736 27.5137 22.9026 27.3211 23.0604C27.129 23.2183 26.9294 23.3664 26.7221 23.5048C26.5154 23.6431 26.3022 23.7712 26.0825 23.8884C25.8633 24.0055 25.6381 24.1119 25.4086 24.2074C25.1786 24.3023 24.9442 24.3864 24.7061 24.4586C24.4684 24.5307 24.227 24.5909 23.9829 24.6398C23.7387 24.688 23.4929 24.7244 23.245 24.7488C22.9976 24.7732 22.7491 24.7857 22.5007 24.7857C22.2516 24.7857 22.0031 24.7732 21.7558 24.7488C21.5078 24.7244 21.262 24.688 21.0179 24.6398C20.7738 24.5909 20.5329 24.5307 20.2947 24.4586C20.0565 24.3864 19.8222 24.3023 19.5927 24.2074C19.3626 24.1119 19.138 24.0055 18.9183 23.8884C18.6986 23.7712 18.4854 23.6431 18.2786 23.5048C18.0719 23.3664 17.8723 23.2183 17.6797 23.0604C17.4871 22.9026 17.3032 22.736 17.1268 22.5597C16.9511 22.3839 16.784 22.2 16.6261 22.0074C16.4682 21.8148 16.3201 21.6151 16.1823 21.4084C16.0439 21.2012 15.9159 20.988 15.7987 20.7688C15.6815 20.5491 15.5752 20.3244 15.4797 20.0944C15.3848 19.8649 15.3007 19.6305 15.2285 19.3924C15.1564 19.1542 15.0961 18.9133 15.0473 18.6692C14.999 18.425 14.9621 18.1793 14.9377 17.9313C14.9138 17.6839 14.9014 17.4354 14.9014 17.1864C14.9014 16.9379 14.9138 16.6895 14.9377 16.4415C14.9621 16.1941 14.999 15.9484 15.0473 15.7042C15.0961 15.4601 15.1564 15.2186 15.2285 14.9805C15.3007 14.7423 15.3848 14.5085 15.4797 14.2784C15.5752 14.0484 15.6815 13.8238 15.7987 13.6046C15.9159 13.3849 16.0439 13.1717 16.1823 12.965C16.3201 12.7577 16.4682 12.5581 16.6261 12.366C16.784 12.1734 16.9511 11.9889 17.1268 11.8132C17.3032 11.6374 17.4871 11.4703 17.6797 11.3124C17.8723 11.1545 18.0719 11.0064 18.2786 10.8681C18.4854 10.7297 18.6986 10.6022 18.9183 10.485C19.138 10.3673 19.3626 10.261 19.5927 10.166C19.8222 10.0705 20.0565 9.98699 20.2947 9.91483C20.5329 9.84267 20.7738 9.78191 21.0179 9.73362C21.262 9.68479 21.5078 9.64844 21.7558 9.62403C22.0031 9.59962 22.2516 9.58768 22.5007 9.58768C22.7491 9.58768 22.9976 9.59962 23.245 9.62403C23.4929 9.64844 23.7387 9.68479 23.9829 9.73362C24.227 9.78191 24.4684 9.84267 24.7061 9.91483C24.9442 9.98699 25.1786 10.0705 25.4086 10.166C25.6381 10.261 25.8633 10.3673 26.0825 10.485C26.3022 10.6022 26.5154 10.7297 26.7221 10.8681C26.9294 11.0064 27.129 11.1545 27.3211 11.3124C27.5137 11.4703 27.6976 11.6374 27.8739 11.8132Z" fill="white"/>
<path d="M22.7197 28.1624H22.2807C16.0714 28.1624 10.843 32.3541 9.26697 38.0626C12.8352 41.1013 17.4571 42.9384 22.4999 42.9384C27.5433 42.9384 32.1646 41.1013 35.7329 38.0626C34.1574 32.3546 28.929 28.1624 22.7197 28.1624Z" fill="white"/>
</svg>
