<?xml version="1.0" standalone="no"?>
<!DOCTYPE svg PUBLIC "-//W3C//DTD SVG 20010904//EN"
 "http://www.w3.org/TR/2001/REC-SVG-20010904/DTD/svg10.dtd">
<svg version="1.0" xmlns="http://www.w3.org/2000/svg"
 width="112.000000pt" height="112.000000pt" viewBox="0 0 712.000000 712.000000"
 preserveAspectRatio="xMidYMid meet">

<g transform="translate(0.000000,512.000000) scale(0.100000,-0.100000)"
fill="#000000" stroke="none">
<path d="M2480 5104 c-19 -8 -48 -27 -63 -42 -55 -52 -62 -75 -67 -236 l-5
-149 -92 -18 c-176 -36 -367 -117 -533 -227 -117 -78 -318 -280 -399 -401
-106 -160 -182 -338 -224 -526 -17 -80 -20 -143 -27 -570 -8 -530 -13 -585
-75 -771 -76 -230 -190 -409 -378 -597 -164 -162 -182 -197 -182 -342 0 -89 3
-106 27 -156 53 -107 158 -186 277 -209 77 -14 3567 -14 3647 1 114 21 219
101 272 208 24 50 27 67 27 156 0 144 -20 182 -173 333 -130 128 -188 201
-258 319 -88 147 -147 308 -179 483 -15 77 -19 184 -25 575 -6 428 -9 490 -27
570 -67 298 -194 527 -412 746 -216 215 -463 351 -744 408 l-92 18 -5 149 c-5
161 -12 184 -67 236 -58 56 -151 73 -223 42z"/>
<path d="M1070 4947 c-67 -20 -279 -260 -422 -475 -269 -408 -423 -904 -431
-1385 -2 -128 -1 -133 26 -180 75 -127 248 -144 342 -34 42 49 55 90 55 178 0
294 90 665 230 947 105 213 219 376 381 549 88 93 103 123 103 198 0 153 -134
248 -284 202z"/>
<path d="M3905 4948 c-89 -31 -152 -129 -142 -219 8 -67 25 -95 119 -196 334
-360 543 -827 587 -1313 6 -63 11 -142 11 -175 0 -83 15 -130 56 -175 95 -105
268 -88 337 32 35 61 39 103 27 277 -44 627 -272 1163 -693 1633 -122 136
-201 171 -302 136z"/>
<path d="M1780 625 c0 -33 62 -182 104 -249 172 -274 506 -422 818 -362 219
42 402 164 526 351 44 66 111 220 112 258 0 16 -44 17 -780 17 -680 0 -780 -2
-780 -15z"/>
</g>
</svg>
