<svg width="43" height="48" viewBox="0 0 43 48" fill="none" xmlns="http://www.w3.org/2000/svg">
<mask id="mask0_4007_200" style="mask-type:luminance" maskUnits="userSpaceOnUse" x="0" y="0" width="43" height="48">
<path d="M0.0681763 0.25H42.9318V47.75H0.0681763V0.25Z" fill="white"/>
</mask>
<g mask="url(#mask0_4007_200)">
<path d="M28.8999 29.1339H28.1557V26.6438C30.896 25.1762 32.8461 22.7068 32.8461 19.275V16.5771C33.8048 15.7539 34.3519 14.8156 34.3519 13.8206V11.4818L38.0049 6.9846C38.1581 6.79729 38.1975 6.56702 38.1143 6.35393C38.0312 6.14084 37.8342 5.96727 37.5759 5.87791L21.8829 0.514593C21.6377 0.432107 21.3598 0.432107 21.1146 0.516312L5.4238 5.87791C5.16553 5.96727 4.96855 6.14084 4.88538 6.35393C4.80221 6.56702 4.84379 6.79729 4.997 6.9846L8.65214 11.4818V13.8206C8.65214 14.8139 9.19932 15.7505 10.1536 16.5736V19.275C10.1536 22.0297 11.388 24.3514 13.7212 25.9891C14.0736 26.2365 14.4522 26.4582 14.844 26.6661V29.1339H14.0998C6.76329 29.1339 0.0789795 33.937 0.0789795 39.2109V46.7979C0.0789795 47.2172 0.512343 47.5575 1.04639 47.5575H41.9555C42.4874 47.5575 42.9207 47.2172 42.9207 46.7979V39.2109C42.9207 33.937 36.2386 29.1339 28.8999 29.1339ZM28.8999 30.653C29.2216 30.653 29.5412 30.6702 29.8607 30.6908L27.3525 36.262L23.0451 33.9713L27.5713 30.653H28.8999ZM20.1823 40.5393H22.7693L24.8026 46.0384H18.1511L20.1823 40.5393ZM22.7649 39.0202H20.1844L19.1645 36.2259L21.4999 34.9835L23.7936 36.2036L22.7649 39.0202ZM32.4215 13.0611H10.5826V12.0197H32.4215V13.0611ZM10.7796 14.5802H32.2245C31.2987 16.4104 27.1555 18.1838 21.5042 18.1838C15.853 18.1838 11.7076 16.4104 10.7796 14.5802ZM21.4977 2.04059L35.768 6.91758L32.8571 10.5006H10.147L7.23386 6.91758L21.4977 2.04059ZM12.084 19.275V17.8092C14.4347 18.9709 17.7834 19.7029 21.5064 19.7029C25.2228 19.7029 28.5672 18.9726 30.9157 17.8109V19.275C30.9157 24.384 26.0349 26.7125 21.4999 26.7125C16.9649 26.7125 12.084 24.384 12.084 19.275ZM21.4999 28.2317C23.1173 28.2317 24.7348 27.9705 26.2253 27.4704V29.5635L21.4977 33.0279L16.7744 29.5635V27.4876C18.2299 27.9687 19.8299 28.2317 21.4999 28.2317ZM15.4306 30.653L19.9524 33.9713L15.6494 36.262L13.139 30.6908C13.4585 30.6702 13.7781 30.653 14.0998 30.653H15.4306ZM2.01161 39.2109C2.01161 35.4303 6.122 31.9453 11.2064 30.9468L14.2465 37.6935C14.345 37.9152 14.5704 38.0888 14.8549 38.1626C14.9534 38.1867 15.0541 38.2005 15.1548 38.2005C15.3452 38.2005 15.5356 38.1558 15.6976 38.0699L17.4814 37.1195L18.451 39.778L16.1397 46.0384H2.01161V39.2109ZM40.9903 46.0384H26.8118L24.4984 39.778L25.4767 37.0972L27.3043 38.0699C27.4663 38.1558 27.6545 38.2005 27.8449 38.2005C27.9456 38.2005 28.0485 38.1884 28.147 38.1626C28.4293 38.0888 28.6547 37.9169 28.7554 37.6935L31.7933 30.9468C36.8799 31.9453 40.9903 35.4303 40.9903 39.2109V46.0384Z" fill="#252424"/>
</g>
</svg>
