<svg width="44" height="32" viewBox="0 0 44 32" fill="none" xmlns="http://www.w3.org/2000/svg">
<path d="M42.8255 0H1.1671C0.806477 0 0.51355 0.363914 0.51355 0.811927V1.47859C0.51355 1.92661 0.806477 2.29052 1.1671 2.29052H2.81143L4.59976 3.75688C4.8053 3.92966 5.04654 4.01835 5.28777 4.01835H15.0836C14.771 4.22936 14.5236 4.56269 14.3845 4.97248C14.3181 5.17737 14.2614 5.38838 14.2159 5.56728L14.2097 5.58716C14.1125 5.96483 14.0251 6.48318 13.9993 6.8471C13.9636 7.36544 13.9427 7.76911 13.9377 8.05046C13.9377 8.30734 13.8097 8.74771 13.5833 9.25382C13.491 9.46483 13.347 9.64373 13.1722 9.77217C12.7451 10.0795 12.3648 10.4572 12.046 10.9052C11.4762 11.7049 11.2189 12.5046 10.9162 13.5489C10.7562 14.1116 10.6848 14.5076 10.6282 14.8287C10.5555 15.2309 10.51 15.5 10.3192 15.9159C10.2122 16.1468 10.0731 16.3899 9.40475 17.1193C9.39491 17.1131 9.38383 17.107 9.37398 17.1009C9.28168 17.0367 9.19921 16.9908 9.12167 16.9664C8.77828 16.8318 8.57274 16.9908 8.48043 17.1009L7.96104 17.7141L7.83181 17.5489L1.67541 24.607L7.5598 32L13.4442 24.896L12.7759 24.0183L13.2953 23.4037C13.47 23.1988 13.4553 22.9174 13.3679 22.6422C13.3827 22.6239 13.3987 22.604 13.4184 22.5917C13.9636 21.9893 14.2774 21.6055 14.5802 21.2339C14.9039 20.8379 15.2067 20.4664 15.7728 19.8456C17.0886 18.4052 18.2553 17.3303 18.835 16.818C19.3138 16.396 19.6523 16.1208 19.9821 15.8517C20.4289 15.4878 20.8868 15.1162 21.6782 14.393C22.3096 13.8104 22.7982 13.3364 23.2708 12.8761C24.1853 11.9801 24.5865 11.5581 24.9053 11.2125C25.1822 10.9174 25.3828 10.7064 25.8148 10.3028C25.8813 10.2401 27.4949 8.72936 29.2278 7.69266C29.741 7.38532 30.0758 7.18043 30.5743 6.99541C30.882 6.8792 31.0728 6.80275 31.2008 6.75076C31.3657 6.68807 31.3965 6.67431 31.4272 6.6682C31.4321 6.6682 32.1152 6.58563 32.434 6.31651C32.5214 6.24618 32.9583 5.84251 32.9485 5.20948C32.9436 4.9526 32.866 4.58257 32.5115 4.26147C32.3934 4.15902 32.2642 4.07645 32.1312 4.01835H38.7196C38.9609 4.01835 39.2033 3.92966 39.4089 3.75688L41.1972 2.29052H42.8415C43.2009 2.29052 43.4939 1.92661 43.4939 1.47859V0.811927C43.4791 0.363914 43.1862 0 42.8255 0ZM27.5158 5.08104L23.3225 7.84557C23.1994 7.92202 20.6554 9.45872 18.7735 9.74006C17.9156 9.8685 17.571 9.56728 17.4172 9.28593C17.5304 9.20948 17.6486 9.14526 17.7766 9.08716C18.147 8.93425 18.4966 8.65902 18.7846 8.29358L20.4905 6.17584L21.2043 5.22171C21.3385 5.06116 21.5034 4.9526 21.672 4.90214C21.688 4.89602 21.6979 4.89602 21.7089 4.89602C21.7286 4.88838 21.7545 4.88838 21.7852 4.87615C22.0585 4.81804 22.2025 4.80581 22.2788 4.81193C21.9957 5.25994 20.9938 6.78288 20.3514 7.74924L20.3157 7.80122L20.2948 7.86544C20.2541 7.98012 20.2024 8.21101 20.2898 8.42202C20.3464 8.56269 20.4498 8.65902 20.5729 8.69725C20.8757 8.77982 21.272 8.51835 21.2868 8.50459C21.5034 8.3578 21.8985 8.08869 22.392 7.74312C23.4505 7.01376 24.9004 6.00917 25.6302 5.56116C25.9687 5.35015 26.3232 5.15749 26.6936 4.97859C27.3669 4.76147 27.757 4.79358 27.8604 4.85015C27.8604 4.8578 27.8653 4.8578 27.8653 4.86391L27.5158 5.08104ZM26.4881 4.10245L26.4475 4.11468C26.0511 4.30734 25.6659 4.51835 25.3004 4.74159C24.5557 5.20336 23.096 6.20795 22.0326 6.94343C21.9243 7.01988 21.8222 7.09021 21.7237 7.15443C22.3256 6.24618 22.9163 5.33639 22.9828 5.19572C23.0653 5.02294 23.0862 4.81193 23.0394 4.5948C22.9939 4.39602 22.8696 4.12691 22.6948 4.01223H22.6899H26.7761C26.6727 4.04434 26.5755 4.07034 26.4881 4.10245ZM20.6861 4.56269L19.9612 5.52905L18.2603 7.64067C18.0498 7.90367 17.8024 8.10245 17.5403 8.21101C17.4381 8.25535 17.3396 8.30734 17.2424 8.36391C17.283 8.19725 17.3507 7.96789 17.4578 7.66055C17.7003 6.9633 17.6744 6.04129 17.5821 5.46483C17.5255 5.10092 17.3864 4.76147 17.1907 4.48012C17.0578 4.28746 16.8929 4.12691 16.7132 4.01223H21.4923C21.1846 4.10856 20.9114 4.29358 20.6861 4.56269ZM8.81398 17.9893L9.1586 18.2202C9.37891 18.367 9.81091 18.7645 10.5925 19.789C11.3223 20.7416 12.0977 21.9128 12.5297 22.7064C12.5445 22.7385 12.5605 22.7645 12.5765 22.7966L12.6319 22.9052L12.2626 23.3471L8.48043 18.3807L8.81398 17.9893ZM7.56965 30.6881L2.75481 24.6391L7.80104 18.8471L11.9648 24.3135L12.3906 24.87L7.56965 30.6881ZM32.1928 5.22783C32.1928 5.34404 32.0697 5.49083 32.0131 5.54128C31.9306 5.61162 31.5602 5.71407 31.3608 5.74006C31.2414 5.75382 31.1651 5.7844 30.9694 5.86239C30.8463 5.91284 30.6555 5.9893 30.3577 6.09939C29.8026 6.3104 29.4223 6.53364 28.9041 6.85321C27.1047 7.93578 25.4345 9.49694 25.3681 9.56116C24.9151 9.97706 24.7096 10.2003 24.4216 10.5076C24.109 10.841 23.7127 11.263 22.808 12.1468C22.3403 12.6009 21.8579 13.0749 21.2351 13.6514C20.4646 14.3547 20.0326 14.7064 19.576 15.078C19.2412 15.3532 18.8917 15.6346 18.4043 16.0642C17.8135 16.5887 16.6209 17.682 15.2793 19.1483C14.6934 19.789 14.3697 20.1911 14.0559 20.5749C13.7728 20.9205 13.4799 21.2859 12.9876 21.8303C12.5346 21.0046 11.7432 19.8135 11.0035 18.8471C10.638 18.367 10.3143 17.9832 10.0325 17.682C10.6798 16.9587 10.8386 16.6774 10.9777 16.3838C11.2239 15.8456 11.2916 15.4679 11.3679 15.0336C11.4196 14.7263 11.4811 14.3746 11.6251 13.8685C11.902 12.896 12.1236 12.2049 12.6073 11.5321C12.8743 11.1606 13.187 10.8471 13.5476 10.5917C13.8454 10.3807 14.0817 10.0734 14.2405 9.71407C14.5334 9.04893 14.6836 8.49847 14.6885 8.07645C14.6885 7.81957 14.7082 7.43578 14.7451 6.94343C14.7648 6.64832 14.8424 6.20031 14.9199 5.8945L14.9248 5.87462C14.9654 5.70184 15.0171 5.51682 15.0738 5.34404C15.171 5.04893 15.3876 4.82569 15.6498 4.74771L15.6645 4.74159C15.8442 4.69113 16.035 4.70336 16.2098 4.7737C16.3685 4.83792 16.5076 4.9526 16.6159 5.11315C16.723 5.26606 16.8006 5.45872 16.8362 5.66361C16.9138 6.14373 16.9089 6.86086 16.7587 7.30887C16.4252 8.28746 16.3845 8.7156 16.4252 8.9526C16.4301 9.04281 16.4461 9.20336 16.4978 9.38226C16.6258 9.87462 17.1144 10.9954 18.8461 10.7324C20.8917 10.4251 23.528 8.81193 23.6413 8.74159L27.8247 5.98318L29.058 5.26606C29.5207 4.99847 29.9823 4.84404 30.3946 4.8318L30.9546 4.81193C31.0728 4.80581 31.1909 4.81193 31.3091 4.82569L31.6783 4.86391C31.8334 4.87615 31.9712 4.94037 32.0795 5.0367C32.1103 5.05505 32.1928 5.14526 32.1928 5.22783ZM28.7293 4.40979L28.5595 4.50459C28.5287 4.42202 28.477 4.31957 28.4056 4.22324C28.3379 4.13456 28.2555 4.06422 28.1583 4.01835H29.6081C29.325 4.10245 29.0321 4.22936 28.7293 4.40979ZM42.7332 1.35627H40.9609L38.9867 2.97554C38.8993 3.04587 38.807 3.0841 38.7098 3.0841H5.28777C5.19054 3.0841 5.09823 3.04587 5.01085 2.97554L3.03174 1.35627H1.26433V0.928135H42.7332V1.35627Z" fill="#252424"/>
</svg>
