<?xml version="1.0" standalone="no"?>
<!DOCTYPE svg PUBLIC "-//W3C//DTD SVG 20010904//EN"
 "http://www.w3.org/TR/2001/REC-SVG-20010904/DTD/svg10.dtd">
<svg version="1.0" xmlns="http://www.w3.org/2000/svg"
 width="20.000000pt" height="20.000000pt" viewBox="0 0 512.000000 512.000000"
 preserveAspectRatio="xMidYMid meet">

<g transform="translate(0.000000,512.000000) scale(0.100000,-0.100000)"
fill="#299b3a" stroke="none">
<path d="M895 4306 c-16 -8 -222 -207 -457 -442 -462 -464 -450 -450 -433
-541 5 -33 59 -91 443 -475 472 -471 458 -460 547 -444 46 9 100 62 115 114
26 86 18 97 -288 405 l-277 277 1835 -2 1835 -3 77 -26 c120 -41 204 -94 294
-183 90 -90 142 -175 182 -294 23 -67 26 -94 26 -212 0 -118 -3 -145 -26 -212
-40 -119 -92 -204 -182 -294 -90 -89 -174 -142 -294 -183 l-77 -26 -1256 -5
-1256 -5 -35 -27 c-72 -55 -88 -152 -35 -222 55 -71 -40 -66 1310 -66 1043 0
1227 2 1303 15 214 37 389 124 543 270 172 163 276 356 316 589 76 444 -157
893 -570 1098 -91 46 -179 74 -289 93 -77 13 -321 15 -1895 15 l-1806 0 277
278 c233 234 278 284 289 320 37 126 -96 242 -216 188z"/>
</g>
</svg>
